<svg width="159" height="30" viewBox="0 0 159 30" fill="none" xmlns="http://www.w3.org/2000/svg">
<g clip-path="url(#clip0_1_2)">
<mask id="mask0_1_2" style="mask-type:luminance" maskUnits="userSpaceOnUse" x="0" y="0" width="159" height="30">
<path d="M158.84 0H0V30H158.84V0Z" fill="white"/>
</mask>
<g mask="url(#mask0_1_2)">
<path d="M0 0.371094V29.6962H15.5567V24.9043H5.87173V0.371094H0Z" fill="white"/>
<path d="M20.8212 0.371094V29.7299H37.829V24.938H26.6929V17.1427H36.5804V12.4858H26.6929V5.12925H37.829V0.371094H20.8212Z" fill="white"/>
<path d="M63.3068 9.21254C62.6318 7.9977 61.7207 7.05281 60.5396 6.41164C59.3585 5.77047 57.9749 5.43302 56.4226 5.43302C54.7016 5.43302 53.1494 5.83797 51.7995 6.61412C50.4497 7.39027 49.4036 8.50388 48.6612 9.9887C47.9188 11.4398 47.5138 13.1271 47.5138 15.0168C47.5138 16.9741 47.885 18.6951 48.6612 20.1462C49.4373 21.5972 50.5172 22.7109 51.867 23.5208C53.2506 24.2969 54.8366 24.7019 56.6588 24.7019C58.8861 24.7019 60.7421 24.0944 62.1594 22.9133C63.5767 21.7322 64.5216 20.0787 64.9603 17.9527H54.8703V13.4308H70.7645V18.5601C70.3595 20.6186 69.516 22.5084 68.2336 24.2294C66.9513 25.9505 65.2978 27.3678 63.273 28.4139C61.2483 29.46 58.9535 29.9999 56.4564 29.9999C53.6218 29.9999 51.0571 29.3588 48.7962 28.0764C46.5015 26.7941 44.7129 25.0393 43.4306 22.7784C42.1145 20.5174 41.4733 17.919 41.4733 15.0506C41.4733 12.1822 42.1145 9.58375 43.4306 7.28903C44.7467 4.99432 46.5352 3.23954 48.7962 1.9572C51.0909 0.674861 53.6218 0.0336914 56.4226 0.0336914C59.7297 0.0336914 62.5981 0.84359 65.0278 2.46339C67.4575 4.08319 69.1448 6.34415 70.0558 9.24629H63.3068V9.21254Z" fill="white"/>
<path d="M126.006 22.2046C127.693 20.5173 128.537 18.1551 128.537 15.0843C128.537 12.0134 127.693 9.65118 126.006 7.93015C124.318 6.20911 121.956 5.33172 118.852 5.33172H114.701V24.7355H118.852C121.956 24.7018 124.318 23.8582 126.006 22.2046ZM127.221 2.15962C129.549 3.37447 131.371 5.0955 132.654 7.32272C133.936 9.54995 134.577 12.1484 134.577 15.0843C134.577 18.0201 133.902 20.5848 132.62 22.812C131.338 25.0055 129.549 26.7265 127.187 27.9076C124.858 29.1225 122.125 29.7299 119.054 29.7299H108.795V0.371094H119.054C122.159 0.371094 124.858 0.978518 127.221 2.15962Z" fill="white"/>
<path d="M137.344 0.371094V5.12925H145.139V29.7299H151.045V5.12925H158.84V0.371094H137.344Z" fill="white"/>
<path d="M88.6832 24.7357C87.2996 24.6007 86.0511 24.2295 84.9713 23.5883C83.6214 22.7784 82.5416 21.6648 81.7992 20.18C81.0568 18.6952 80.6518 16.9741 80.6518 15.0169C80.6518 13.0596 81.023 11.3386 81.7992 9.88751C82.5416 8.4027 83.6214 7.28909 84.9713 6.51294C86.3211 5.73678 87.9071 5.33183 89.6618 5.33183C91.4166 5.33183 92.9689 5.73678 94.3187 6.51294C95.6686 7.28909 96.7147 8.43645 97.4571 9.88751C98.0983 11.1024 98.4357 12.5197 98.5707 14.072H104.611C104.476 11.6085 103.835 9.34758 102.654 7.32283C101.337 5.02812 99.5156 3.23959 97.2209 1.95726C94.9599 0.64117 92.429 0 89.6618 0C86.9284 0 84.3976 0.64117 82.1029 1.92351C79.8082 3.20585 77.9859 4.99438 76.6361 7.28909C75.2862 9.5838 74.6113 12.1485 74.6113 14.9831C74.6113 17.8515 75.2862 20.4499 76.6361 22.7447C77.9859 25.0394 79.8082 26.8279 82.1029 28.1102C84.1276 29.2576 86.3211 29.865 88.7169 30V24.7357H88.6832Z" fill="white"/>
<path d="M98.5368 16.1304C98.4018 17.6152 98.0643 18.9651 97.4569 20.1462C96.7145 21.631 95.6346 22.7783 94.3185 23.5545C93.2724 24.1619 92.0913 24.5669 90.809 24.7019V29.9662C93.1037 29.7975 95.2634 29.19 97.2207 28.0764C99.5154 26.7941 101.337 25.0056 102.653 22.7109C103.801 20.7199 104.442 18.5264 104.611 16.0967H98.5368V16.1304Z" fill="white"/>
</g>
</g>
<defs>
<clipPath id="clip0_1_2">
<rect width="158.84" height="30" fill="white"/>
</clipPath>
</defs>
</svg>
